<svg width="190" height="270" viewBox="0 0 190 270" fill="none" xmlns="http://www.w3.org/2000/svg">
<path d="M190 167C190 223.885 135.825 270 87.5 270C39.1751 270 0 223.885 0 167C0 110.115 14.6751 0 63 0C111.325 -1.14441e-05 170 28 190 167Z" fill="#B1957B" fill-opacity="0.6"/>
<path d="M89 86C89 88.7614 86.7614 91 84 91C81.2386 91 79 88.7614 79 86C79 83.2386 81.2386 81 84 81C86.7614 81 89 83.2386 89 86Z" fill="#584432"/>
<path d="M89 140C89 142.761 86.7614 145 84 145C81.2386 145 79 142.761 79 140C79 137.239 81.2386 135 84 135C86.7614 135 89 137.239 89 140Z" fill="#584432"/>
<path d="M89 194C89 196.761 86.7614 199 84 199C81.2386 199 79 196.761 79 194C79 191.239 81.2386 189 84 189C86.7614 189 89 191.239 89 194Z" fill="#584432"/>
</svg>
