<svg width="62" height="54" viewBox="0 0 62 54" fill="none" xmlns="http://www.w3.org/2000/svg">
<path d="M47 18C47 27.9411 39.3888 36 30 36C20.6112 36 13 27.9411 13 18C13 8.05887 20.6112 0 30 0C39.3888 0 47 8.05887 47 18Z" fill="#8B6D52"/>
<path d="M24 27C24 31.9706 19.0751 36 13 36C6.92487 36 2 31.9706 2 27C2 22.0294 6.92487 18 13 18C19.0751 18 24 22.0294 24 27Z" fill="#8B6D52"/>
<path d="M57 27C57 31.9706 52.0751 36 46 36C39.9249 36 35 31.9706 35 27C35 22.0294 39.9249 18 46 18C52.0751 18 57 22.0294 57 27Z" fill="#8B6D52"/>
<path d="M31 36L40.5 38.5L48.5 43L56 47.5L61.3109 53.25L31 47.5L0.689117 53.25L6.5 47L14 42.5L22 38L31 36Z" fill="black"/>
</svg>
